<svg id="SvgjsSvg1006" width="758.5" height="670" xmlns="http://www.w3.org/2000/svg" version="1.1" xmlns:xlink="http://www.w3.org/1999/xlink" xmlns:svgjs="http://svgjs.com/svgjs"><defs id="SvgjsDefs1007"><pattern id="SvgjsPattern1014" x="0" y="0" width="77" height="65" patternUnits="userSpaceOnUse"><image id="SvgjsImage1015" xlink:href="https://www.processon.com/assets/images/designer/network/pc.svg" width="77" height="65" preserveAspectRatio="none" crossOrigin="anonymous" x="0" y="0"></image></pattern><pattern id="SvgjsPattern1022" x="0" y="0" width="40" height="76" patternUnits="userSpaceOnUse"><image id="SvgjsImage1023" xlink:href="https://www.processon.com/assets/images/designer/network/iphone.svg" width="40" height="76" preserveAspectRatio="none" crossOrigin="anonymous" x="0" y="0"></image></pattern><pattern id="SvgjsPattern1030" x="0" y="0" width="82.5" height="16" patternUnits="userSpaceOnUse"><image id="SvgjsImage1031" xlink:href="https://www.processon.com/assets/images/designer/network/hub.svg" width="82.5" height="16" preserveAspectRatio="none" crossOrigin="anonymous" x="0" y="0"></image></pattern><marker id="SvgjsMarker1040" markerWidth="16" markerHeight="12" refX="16" refY="6" viewBox="0 0 16 12" orient="auto" markerUnits="userSpaceOnUse"><path id="SvgjsPath1041" d="M0,2 L14,6 L0,11 L0,2" fill="#323232" stroke="#323232" stroke-width="2"></path></marker><marker id="SvgjsMarker1044" markerWidth="16" markerHeight="12" refX="16" refY="6" viewBox="0 0 16 12" orient="auto" markerUnits="userSpaceOnUse"><path id="SvgjsPath1045" d="M0,2 L14,6 L0,11 L0,2" fill="#323232" stroke="#323232" stroke-width="2"></path></marker><pattern id="SvgjsPattern1048" x="0" y="0" width="36" height="80" patternUnits="userSpaceOnUse"><image id="SvgjsImage1049" xlink:href="https://www.processon.com/assets/images/designer/network/server.svg" width="36" height="80" preserveAspectRatio="none" crossOrigin="anonymous" x="0" y="0"></image></pattern><marker id="SvgjsMarker1058" markerWidth="16" markerHeight="12" refX="16" refY="6" viewBox="0 0 16 12" orient="auto" markerUnits="userSpaceOnUse"><path id="SvgjsPath1059" d="M0,2 L14,6 L0,11 L0,2" fill="#323232" stroke="#323232" stroke-width="2"></path></marker><pattern id="SvgjsPattern1062" x="0" y="0" width="20" height="51" patternUnits="userSpaceOnUse"><image id="SvgjsImage1063" xlink:href="https://www.processon.com/assets/images/designer/network/server.svg" width="20" height="51" preserveAspectRatio="none" crossOrigin="anonymous" x="0" y="0"></image></pattern><pattern id="SvgjsPattern1070" x="0" y="0" width="20" height="51" patternUnits="userSpaceOnUse"><image id="SvgjsImage1071" xlink:href="https://www.processon.com/assets/images/designer/network/server.svg" width="20" height="51" preserveAspectRatio="none" crossOrigin="anonymous" x="0" y="0"></image></pattern><pattern id="SvgjsPattern1078" x="0" y="0" width="20" height="51" patternUnits="userSpaceOnUse"><image id="SvgjsImage1079" xlink:href="https://www.processon.com/assets/images/designer/network/server.svg" width="20" height="51" preserveAspectRatio="none" crossOrigin="anonymous" x="0" y="0"></image></pattern><marker id="SvgjsMarker1086" markerWidth="16" markerHeight="12" refX="16" refY="6" viewBox="0 0 16 12" orient="auto" markerUnits="userSpaceOnUse"><path id="SvgjsPath1087" d="M0,2 L14,6 L0,11 L0,2" fill="#323232" stroke="#323232" stroke-width="2"></path></marker><marker id="SvgjsMarker1090" markerWidth="16" markerHeight="12" refX="16" refY="6" viewBox="0 0 16 12" orient="auto" markerUnits="userSpaceOnUse"><path id="SvgjsPath1091" d="M0,2 L14,6 L0,11 L0,2" fill="#323232" stroke="#323232" stroke-width="2"></path></marker><marker id="SvgjsMarker1094" markerWidth="16" markerHeight="12" refX="16" refY="6" viewBox="0 0 16 12" orient="auto" markerUnits="userSpaceOnUse"><path id="SvgjsPath1095" d="M0,2 L14,6 L0,11 L0,2" fill="#323232" stroke="#323232" stroke-width="2"></path></marker><marker id="SvgjsMarker1098" markerWidth="16" markerHeight="12" refX="16" refY="6" viewBox="0 0 16 12" orient="auto" markerUnits="userSpaceOnUse"><path id="SvgjsPath1099" d="M0,2 L14,6 L0,11 L0,2" fill="#323232" stroke="#323232" stroke-width="2"></path></marker><marker id="SvgjsMarker1102" markerWidth="16" markerHeight="12" refX="16" refY="6" viewBox="0 0 16 12" orient="auto" markerUnits="userSpaceOnUse"><path id="SvgjsPath1103" d="M0,2 L14,6 L0,11 L0,2" fill="#323232" stroke="#323232" stroke-width="2"></path></marker><marker id="SvgjsMarker1106" markerWidth="16" markerHeight="12" refX="16" refY="6" viewBox="0 0 16 12" orient="auto" markerUnits="userSpaceOnUse"><path id="SvgjsPath1107" d="M0,2 L14,6 L0,11 L0,2" fill="#323232" stroke="#323232" stroke-width="2"></path></marker><marker id="SvgjsMarker1114" markerWidth="16" markerHeight="12" refX="16" refY="6" viewBox="0 0 16 12" orient="auto" markerUnits="userSpaceOnUse"><path id="SvgjsPath1115" d="M0,2 L14,6 L0,11 L0,2" fill="#323232" stroke="#323232" stroke-width="2"></path></marker><pattern id="SvgjsPattern1122" x="0" y="0" width="20" height="19" patternUnits="userSpaceOnUse"><image id="SvgjsImage1123" xlink:href="https://www.processon.com/assets/images/designer/network/server.svg" width="20" height="19" preserveAspectRatio="none" crossOrigin="anonymous" x="0" y="0"></image></pattern><pattern id="SvgjsPattern1130" x="0" y="0" width="20" height="19" patternUnits="userSpaceOnUse"><image id="SvgjsImage1131" xlink:href="https://www.processon.com/assets/images/designer/network/server.svg" width="20" height="19" preserveAspectRatio="none" crossOrigin="anonymous" x="0" y="0"></image></pattern><pattern id="SvgjsPattern1138" x="0" y="0" width="48" height="41" patternUnits="userSpaceOnUse"><image id="SvgjsImage1139" xlink:href="https://www.processon.com/assets/images/designer/network/server.svg" width="48" height="41" preserveAspectRatio="none" crossOrigin="anonymous" x="0" y="0"></image></pattern><marker id="SvgjsMarker1148" markerWidth="16" markerHeight="12" refX="16" refY="6" viewBox="0 0 16 12" orient="auto" markerUnits="userSpaceOnUse"><path id="SvgjsPath1149" d="M0,2 L14,6 L0,11 L0,2" fill="#323232" stroke="#323232" stroke-width="2"></path></marker><marker id="SvgjsMarker1156" markerWidth="16" markerHeight="12" refX="16" refY="6" viewBox="0 0 16 12" orient="auto" markerUnits="userSpaceOnUse"><path id="SvgjsPath1157" d="M0,2 L14,6 L0,11 L0,2" fill="#323232" stroke="#323232" stroke-width="2"></path></marker><marker id="SvgjsMarker1176" markerWidth="16" markerHeight="12" refX="16" refY="6" viewBox="0 0 16 12" orient="auto" markerUnits="userSpaceOnUse"><path id="SvgjsPath1177" d="M0,2 L14,6 L0,11 L0,2" fill="#323232" stroke="#323232" stroke-width="2"></path></marker><marker id="SvgjsMarker1180" markerWidth="16" markerHeight="12" refX="16" refY="6" viewBox="0 0 16 12" orient="auto" markerUnits="userSpaceOnUse"><path id="SvgjsPath1181" d="M0,2 L14,6 L0,11 L0,2" fill="#323232" stroke="#323232" stroke-width="2"></path></marker></defs><g id="SvgjsG1008" transform="translate(498.5,201)"><path id="SvgjsPath1009" d="M 0 4Q 0 0 4 0L 175 0Q 179 0 179 4L 179 289Q 179 293 175 293L 4 293Q 0 293 0 289Z" stroke="#323232" stroke-width="2" fill-opacity="1" fill="#ffffff"></path><g id="SvgjsG1010"><text id="SvgjsText1011" font-family="微软雅黑" text-anchor="middle" font-size="13px" width="0" fill="#323232" font-weight="400" align="middle" anchor="middle" family="微软雅黑" size="13px" weight="400" font-style="" y="11.978571428571428" transform="rotate(0)"></text></g></g><g id="SvgjsG1012" transform="translate(25,235.5)"><path id="SvgjsPath1013" d="M 0 0L 77 0L 77 65L 0 65Z" stroke="none" fill="url(#SvgjsPattern1014)"></path><g id="SvgjsG1016"><text id="SvgjsText1017" font-family="微软雅黑" text-anchor="middle" font-size="13px" width="17" fill="#323232" font-weight="400" align="middle" anchor="middle" family="微软雅黑" size="13px" weight="400" font-style="" y="70.05" transform="rotate(0)"><tspan id="SvgjsTspan1018" dy="16" x="38.5"><tspan id="SvgjsTspan1019" style="text-decoration:;">PC</tspan></tspan></text></g></g><g id="SvgjsG1020" transform="translate(43.5,380)"><path id="SvgjsPath1021" d="M 0 0L 40 0L 40 76L 0 76Z" stroke="none" fill="url(#SvgjsPattern1022)"></path><g id="SvgjsG1024"><text id="SvgjsText1025" font-family="微软雅黑" text-anchor="middle" font-size="13px" width="25" fill="#323232" font-weight="400" align="middle" anchor="middle" family="微软雅黑" size="13px" weight="400" font-style="" y="81.05" transform="rotate(0)"><tspan id="SvgjsTspan1026" dy="16" x="20"><tspan id="SvgjsTspan1027" style="text-decoration:;">APP</tspan></tspan></text></g></g><g id="SvgjsG1028" transform="translate(192.25,339.5)"><path id="SvgjsPath1029" d="M 0 0L 82.5 0L 82.5 16L 0 16Z" stroke="none" fill="url(#SvgjsPattern1030)"></path><g id="SvgjsG1032"><text id="SvgjsText1033" font-family="微软雅黑" text-anchor="middle" font-size="13px" width="52" fill="#323232" font-weight="400" align="middle" anchor="middle" family="微软雅黑" size="13px" weight="400" font-style="" y="13.05" transform="rotate(0)"><tspan id="SvgjsTspan1034" dy="16" x="41.5"><tspan id="SvgjsTspan1035" style="text-decoration:;">负载均衡</tspan></tspan><tspan id="SvgjsTspan1036" dy="16" x="41.5"><tspan id="SvgjsTspan1037" style="text-decoration:;">Nginx</tspan></tspan></text></g></g><g id="SvgjsG1038"><path id="SvgjsPath1039" d="M102 268L138.125 268L138.125 347.5L192.25 347.5" stroke="#323232" stroke-width="2" fill="none" marker-end="url(#SvgjsMarker1040)"></path></g><g id="SvgjsG1042"><path id="SvgjsPath1043" d="M83.5 418L137.875 418L137.875 347.5L192.25 347.5" stroke="#323232" stroke-width="2" fill="none" marker-end="url(#SvgjsMarker1044)"></path></g><g id="SvgjsG1046" transform="translate(337.5,307.5)"><path id="SvgjsPath1047" d="M 0 0L 36 0L 36 80L 0 80Z" stroke="none" fill="url(#SvgjsPattern1048)"></path><g id="SvgjsG1050"><text id="SvgjsText1051" font-family="微软雅黑" text-anchor="middle" font-size="13px" width="52" fill="#323232" font-weight="400" align="middle" anchor="middle" family="微软雅黑" size="13px" weight="400" font-style="" y="77.05" transform="rotate(0)"><tspan id="SvgjsTspan1052" dy="16" x="18"><tspan id="SvgjsTspan1053" style="text-decoration:;">网关 </tspan></tspan><tspan id="SvgjsTspan1054" dy="16" x="18"><tspan id="SvgjsTspan1055" style="text-decoration:;">gateway</tspan></tspan></text></g></g><g id="SvgjsG1056"><path id="SvgjsPath1057" d="M274.75 347.5L306.125 347.5L306.125 347.5L337.5 347.5" stroke="#323232" stroke-width="2" fill="none" marker-end="url(#SvgjsMarker1058)"></path></g><g id="SvgjsG1060" transform="translate(554.5,322)"><path id="SvgjsPath1061" d="M 0 0L 20 0L 20 51L 0 51Z" stroke="none" fill="url(#SvgjsPattern1062)"></path><g id="SvgjsG1064"><text id="SvgjsText1065" font-family="微软雅黑" text-anchor="middle" font-size="13px" width="34" fill="#323232" font-weight="400" align="middle" anchor="middle" family="微软雅黑" size="13px" weight="400" font-style="" y="56.05" transform="rotate(0)"><tspan id="SvgjsTspan1066" dy="16" x="10"><tspan id="SvgjsTspan1067" style="text-decoration:;">B服务</tspan></tspan></text></g></g><g id="SvgjsG1068" transform="translate(554.5,234)"><path id="SvgjsPath1069" d="M 0 0L 20 0L 20 51L 0 51Z" stroke="none" fill="url(#SvgjsPattern1070)"></path><g id="SvgjsG1072"><text id="SvgjsText1073" font-family="微软雅黑" text-anchor="middle" font-size="13px" width="35" fill="#323232" font-weight="400" align="middle" anchor="middle" family="微软雅黑" size="13px" weight="400" font-style="" y="56.05" transform="rotate(0)"><tspan id="SvgjsTspan1074" dy="16" x="10"><tspan id="SvgjsTspan1075" style="text-decoration:;">A服务</tspan></tspan></text></g></g><g id="SvgjsG1076" transform="translate(554.5,418)"><path id="SvgjsPath1077" d="M 0 0L 20 0L 20 51L 0 51Z" stroke="none" fill="url(#SvgjsPattern1078)"></path><g id="SvgjsG1080"><text id="SvgjsText1081" font-family="微软雅黑" text-anchor="middle" font-size="13px" width="35" fill="#323232" font-weight="400" align="middle" anchor="middle" family="微软雅黑" size="13px" weight="400" font-style="" y="56.05" transform="rotate(0)"><tspan id="SvgjsTspan1082" dy="16" x="10"><tspan id="SvgjsTspan1083" style="text-decoration:;">C服务</tspan></tspan></text></g></g><g id="SvgjsG1084"><path id="SvgjsPath1085" d="M373.5 347.5L464 347.5L464 259.5L554.5 259.5" stroke="#323232" stroke-width="2" fill="none" marker-end="url(#SvgjsMarker1086)"></path></g><g id="SvgjsG1088"><path id="SvgjsPath1089" d="M373.5 347.5L464 347.5L464 347.5L554.5 347.5" stroke="#323232" stroke-width="2" fill="none" marker-end="url(#SvgjsMarker1090)"></path></g><g id="SvgjsG1092"><path id="SvgjsPath1093" d="M373.5 347.5L464 347.5L464 443.5L554.5 443.5" stroke="#323232" stroke-width="2" fill="none" marker-end="url(#SvgjsMarker1094)"></path></g><g id="SvgjsG1096"><path id="SvgjsPath1097" d="M574.5 259.5L652.5 259.5L652.5 347.5L574.5 347.5" stroke="#323232" stroke-width="2" fill="none" marker-end="url(#SvgjsMarker1098)"></path></g><g id="SvgjsG1100"><path id="SvgjsPath1101" d="M574.5 443.5L653.5 443.5L653.5 347.5L574.5 347.5" stroke="#323232" stroke-width="2" fill="none" marker-end="url(#SvgjsMarker1102)"></path></g><g id="SvgjsG1104"><path id="SvgjsPath1105" d="M574.5 347.5L653.5 347.5L653.5 259.5L574.5 259.5" stroke="#323232" stroke-width="2" fill="none" marker-end="url(#SvgjsMarker1106)"></path><rect id="SvgjsRect1108" width="32" height="16" x="637.5" y="295.5" fill="#ffffff"></rect><text id="SvgjsText1109" font-family="微软雅黑" text-anchor="middle" font-size="13px" width="32" fill="#323232" font-weight="400" align="top" anchor="middle" family="微软雅黑" size="13px" weight="400" font-style="" y="293.55" transform="rotate(0)"><tspan id="SvgjsTspan1110" dy="16" x="653.5"><tspan id="SvgjsTspan1111" style="text-decoration:;">fegin</tspan></tspan></text></g><g id="SvgjsG1112"><path id="SvgjsPath1113" d="M574.5 347.5L653.5 347.5L653.5 443.5L574.5 443.5" stroke="#323232" stroke-width="2" fill="none" marker-end="url(#SvgjsMarker1114)"></path><rect id="SvgjsRect1116" width="32" height="16" x="637.5" y="387.5" fill="#ffffff"></rect><text id="SvgjsText1117" font-family="微软雅黑" text-anchor="middle" font-size="13px" width="32" fill="#323232" font-weight="400" align="top" anchor="middle" family="微软雅黑" size="13px" weight="400" font-style="" y="385.55" transform="rotate(0)"><tspan id="SvgjsTspan1118" dy="16" x="653.5"><tspan id="SvgjsTspan1119" style="text-decoration:;">fegin</tspan></tspan></text></g><g id="SvgjsG1120" transform="translate(594.5,359)"><path id="SvgjsPath1121" d="M 0 0L 20 0L 20 19L 0 19Z" stroke="none" fill="url(#SvgjsPattern1122)"></path><g id="SvgjsG1124"><text id="SvgjsText1125" font-family="微软雅黑" text-anchor="middle" font-size="13px" width="37" fill="#323232" font-weight="400" align="middle" anchor="middle" family="微软雅黑" size="13px" weight="400" font-style="" y="24.05" transform="rotate(0)"><tspan id="SvgjsTspan1126" dy="16" x="10"><tspan id="SvgjsTspan1127" style="text-decoration:;">mysql</tspan></tspan></text></g></g><g id="SvgjsG1128" transform="translate(594.5,299)"><path id="SvgjsPath1129" d="M 0 0L 20 0L 20 19L 0 19Z" stroke="none" fill="url(#SvgjsPattern1130)"></path><g id="SvgjsG1132"><text id="SvgjsText1133" font-family="微软雅黑" text-anchor="middle" font-size="13px" width="30" fill="#323232" font-weight="400" align="middle" anchor="middle" family="微软雅黑" size="13px" weight="400" font-style="" y="24.05" transform="rotate(0)"><tspan id="SvgjsTspan1134" dy="16" x="10"><tspan id="SvgjsTspan1135" style="text-decoration:;">redis</tspan></tspan></text></g></g><g id="SvgjsG1136" transform="translate(400.5,127.5)"><path id="SvgjsPath1137" d="M 0 0L 48 0L 48 41L 0 41Z" stroke="none" fill="url(#SvgjsPattern1138)"></path><g id="SvgjsG1140"><text id="SvgjsText1141" font-family="微软雅黑" text-anchor="middle" font-size="13px" width="40" fill="#323232" font-weight="400" align="middle" anchor="middle" family="微软雅黑" size="13px" weight="400" font-style="" y="38.05" transform="rotate(0)"><tspan id="SvgjsTspan1142" dy="16" x="24"><tspan id="SvgjsTspan1143" style="text-decoration:;"> </tspan></tspan><tspan id="SvgjsTspan1144" dy="16" x="24"><tspan id="SvgjsTspan1145" style="text-decoration:;">consul</tspan></tspan></text></g></g><g id="SvgjsG1146"><path id="SvgjsPath1147" d="M588 201L588 148L448.5 148" stroke="#323232" stroke-width="2" fill="none" marker-end="url(#SvgjsMarker1148)"></path><rect id="SvgjsRect1150" width="26" height="16" x="531.75" y="140" fill="#ffffff"></rect><text id="SvgjsText1151" font-family="微软雅黑" text-anchor="middle" font-size="13px" width="26" fill="#323232" font-weight="400" align="top" anchor="middle" family="微软雅黑" size="13px" weight="400" font-style="" y="138.05" transform="rotate(0)"><tspan id="SvgjsTspan1152" dy="16" x="544.75"><tspan id="SvgjsTspan1153" style="text-decoration:;">注册</tspan></tspan></text></g><g id="SvgjsG1154"><path id="SvgjsPath1155" d="M355.5 307.5L355.5 148L400.5 148" stroke="#323232" stroke-width="2" fill="none" marker-end="url(#SvgjsMarker1156)"></path><rect id="SvgjsRect1158" width="26" height="16" x="342.5" y="197.25" fill="#ffffff"></rect><text id="SvgjsText1159" font-family="微软雅黑" text-anchor="middle" font-size="13px" width="26" fill="#323232" font-weight="400" align="top" anchor="middle" family="微软雅黑" size="13px" weight="400" font-style="" y="195.3" transform="rotate(0)"><tspan id="SvgjsTspan1160" dy="16" x="355.5"><tspan id="SvgjsTspan1161" style="text-decoration:;">注册</tspan></tspan></text></g><g id="SvgjsG1162" transform="translate(664.5,25)"><path id="SvgjsPath1163" d="M 0 0L 69 0L 69 36L 0 36Z" stroke="#323232" stroke-width="2" fill-opacity="1" fill="#ffffff"></path><g id="SvgjsG1164"><text id="SvgjsText1165" font-family="微软雅黑" text-anchor="middle" font-size="13px" width="37" fill="#323232" font-weight="400" align="middle" anchor="middle" family="微软雅黑" size="13px" weight="400" font-style="" y="8.05" transform="rotate(0)"><tspan id="SvgjsTspan1166" dy="16" x="34.5"><tspan id="SvgjsTspan1167" style="text-decoration:;">zipkin</tspan></tspan></text></g></g><g id="SvgjsG1168" transform="translate(664.5,89)"><path id="SvgjsPath1169" d="M 0 0L 69 0L 69 36L 0 36Z" stroke="#323232" stroke-width="2" fill-opacity="1" fill="#ffffff"></path><g id="SvgjsG1170"><text id="SvgjsText1171" font-family="微软雅黑" text-anchor="middle" font-size="13px" width="38" fill="#323232" font-weight="400" align="middle" anchor="middle" family="微软雅黑" size="13px" weight="400" font-style="" y="8.05" transform="rotate(0)"><tspan id="SvgjsTspan1172" dy="16" x="34.5"><tspan id="SvgjsTspan1173" style="text-decoration:;">sleuth</tspan></tspan></text></g></g><g id="SvgjsG1174"><path id="SvgjsPath1175" d="M677.5 347.5L699 347.5L699 125" stroke="#323232" stroke-width="2" fill="none" marker-end="url(#SvgjsMarker1176)"></path></g><g id="SvgjsG1178"><path id="SvgjsPath1179" d="M699 89L699 75L699 75L699 61" stroke="#323232" stroke-width="2" fill="none" marker-end="url(#SvgjsMarker1180)"></path></g><g id="SvgjsG1182" transform="translate(465.5,617)"><path id="SvgjsPath1183" d="M 0 0L 254 0L 254 28L 0 28Z" stroke="#323232" stroke-width="2" fill-opacity="1" fill="#ffffff"></path><g id="SvgjsG1184"><text id="SvgjsText1185" font-family="微软雅黑" text-anchor="middle" font-size="13px" width="101" fill="#323232" font-weight="400" align="middle" anchor="middle" family="微软雅黑" size="13px" weight="400" font-style="" y="4.05" transform="rotate(0)"><tspan id="SvgjsTspan1186" dy="16" x="127"><tspan id="SvgjsTspan1187" style="text-decoration:;">消息总线（MQ）</tspan></tspan></text></g></g><g id="SvgjsG1188" transform="translate(513.5,512)"><path id="SvgjsPath1189" d="M 15.5 0L 31 15.5L 20.77 15.5L 20.77 60.5L 31 60.5L 15.5 76L 0 60.5L 10.23 60.5L 10.23 15.5L 0 15.5L 15.5 0Z" stroke="#323232" stroke-width="2" fill-opacity="1" fill="#ffffff"></path><g id="SvgjsG1190"><text id="SvgjsText1191" font-family="微软雅黑" text-anchor="middle" font-size="13px" width="0" fill="#323232" font-weight="400" align="middle" anchor="middle" family="微软雅黑" size="13px" weight="400" font-style="" y="28.05" transform="rotate(0)"></text></g></g><g id="SvgjsG1192" transform="translate(629.5,512)"><path id="SvgjsPath1193" d="M 15.5 0L 31 15.5L 20.77 15.5L 20.77 60.5L 31 60.5L 15.5 76L 0 60.5L 10.23 60.5L 10.23 15.5L 0 15.5L 15.5 0Z" stroke="#323232" stroke-width="2" fill-opacity="1" fill="#ffffff"></path><g id="SvgjsG1194"><text id="SvgjsText1195" font-family="微软雅黑" text-anchor="middle" font-size="13px" width="0" fill="#323232" font-weight="400" align="middle" anchor="middle" family="微软雅黑" size="13px" weight="400" font-style="" y="28.05" transform="rotate(0)"></text></g></g><g id="SvgjsG1196" transform="translate(350.5,456)"><path id="SvgjsPath1197" d="M 0 0L 136 0L 136 38L 0 38Z" stroke="#323232" stroke-width="2" fill-opacity="1" fill="#ffffff"></path><g id="SvgjsG1198"><text id="SvgjsText1199" font-family="微软雅黑" text-anchor="middle" font-size="13px" width="111" fill="#323232" font-weight="400" align="middle" anchor="middle" family="微软雅黑" size="13px" weight="400" font-style="" y="1.05" transform="rotate(0)"><tspan id="SvgjsTspan1200" dy="16" x="68"><tspan id="SvgjsTspan1201" style="text-decoration:;">熔断处理 </tspan></tspan><tspan id="SvgjsTspan1202" dy="16" x="68"><tspan id="SvgjsTspan1203" style="text-decoration:;">hystrix dashborad</tspan></tspan></text></g></g><g id="SvgjsG1204" transform="translate(423.5,48)"><path id="SvgjsPath1205" d="M 0 35C 0 -11.666666666666666 90 -11.666666666666666 90 35Q 88.2 68.6 45 70Q 30 70 15 63L 0 70L 10.530000000000001 59.99Q 0 49 0 35" stroke="#323232" stroke-width="2" fill-opacity="1" fill="#ffffff"></path><g id="SvgjsG1206"><text id="SvgjsText1207" font-family="微软雅黑" text-anchor="middle" font-size="13px" width="65" fill="#323232" font-weight="400" align="middle" anchor="middle" family="微软雅黑" size="13px" weight="400" font-style="" y="17.05" transform="rotate(0)"><tspan id="SvgjsTspan1208" dy="16" x="45"><tspan id="SvgjsTspan1209" style="text-decoration:;">服务注册、</tspan></tspan><tspan id="SvgjsTspan1210" dy="16" x="45"><tspan id="SvgjsTspan1211" style="text-decoration:;">发现、配置</tspan></tspan></text></g></g></svg>